Motion_pl14
version=1
nRows=13
nColumns=43
inDegrees=yes
endheader
time	pelvis_tilt	pelvis_list	pelvis_rotation	pelvis_tx	pelvis_ty	pelvis_tz	hip_flexion_r	hip_adduction_r	hip_rotation_r	knee_angle_r	ankle_angle_r	subtalar_angle_r	mtp_angle_r	hip_flexion_l	hip_adduction_l	hip_rotation_l	knee_angle_l	ankle_angle_l	subtalar_angle_l	mtp_angle_l	lumbar_extension	lumbar_bending	lumbar_rotation	neck_flexion	neck_lateral_bending	neck_rotation	arm_flex_r	arm_add_r	arm_rot_r	elbow_flex_r	pro_sup_r	wrist_flex_r	wrist_dev_r	hand_finger_flex_r	arm_flex_l	arm_add_l	arm_rot_l	elbow_flex_l	pro_sup_l	wrist_flex_l	wrist_dev_l	hand_finger_flex_l
      1.32750000	      1.25572517	      7.93065834	     93.92332794	      0.02351679	      0.97976390	      0.62814071	     27.19836952	     -3.60059708	    -12.47747222	    -33.10765692	    -19.11400994	     -5.28389533	     -2.12598491	     31.70980419	     -6.60302183	     -3.25329616	    -37.66244168	    -27.46141215	      7.96090154	      7.07793130	    -36.50129417	     -1.77909438	      0.99677435	    -16.94816534	     -0.09502670	     -4.04848260	    -59.80380054	    -12.44645299	    -32.54414080	     39.35754211	    117.67149762	     19.53399653	      1.19974593	      5.25043868	    -56.09783096	    -13.92348320	    -28.48583761	     44.34479716	    119.20681802	    -18.88828074	     -8.24186972	    -22.49072534
      1.33000000	      1.33071388	      8.10468241	     94.01328580	      0.02320178	      0.96911579	      0.62464368	     27.90942351	     -3.54363666	    -11.74812670	    -34.81738837	    -18.91673894	     -4.94021194	     -1.84096672	     32.45087203	     -6.51237274	     -2.74690983	    -39.29574261	    -27.49269149	      7.80197083	      7.27067547	    -36.92736844	     -1.61495276	      1.07244929	    -16.09713763	     -0.21088058	     -4.14974335	    -58.82001259	    -12.43993217	    -32.22174694	     39.60739815	    117.62621002	     19.39170002	      0.98959669	      5.29798538	    -55.26122331	    -13.79311190	    -28.53348727	     44.58275783	    119.12460984	    -19.31902263	     -8.44131911	    -22.45688512
      1.33250000	      1.32909207	      7.42445691	     93.99668543	      0.02280442	      0.95665417	      0.62102760	     29.74585528	     -3.64420874	    -10.90670906	    -36.85945486	    -18.48577736	     -4.13677372	      0.11129238	     34.16381746	     -6.25782858	     -2.16438061	    -40.99421072	    -27.57772735	      7.65431291	      8.87927847	    -36.29565842	     -1.63103635	      1.13506872	    -15.95836512	     -0.29699445	     -4.21189542	    -57.88727582	    -12.66312163	    -31.41638363	     39.60783150	    117.33228509	     18.79636153	      0.33832150	      5.62539419	    -54.44470938	    -13.72237942	    -28.29296370	     44.51394794	    118.91301819	    -20.29637984	     -9.03134177	    -21.87840583
      1.33500000	      1.40162702	      7.61141682	     94.06022801	      0.02253495	      0.94586359	      0.61743859	     30.49246059	     -3.57877072	    -10.25847150	    -38.61504790	    -18.79214535	     -4.14524267	      7.56931179	     34.81114851	     -6.18348766	     -1.79934063	    -42.39805951	    -27.96543240	      7.42512810	     15.76115734	    -36.72191036	     -1.50161336	      1.17520468	    -15.16259849	     -0.32540077	     -4.30714593	    -56.89471045	    -12.85352571	    -30.61699206	     39.87536190	    116.39827210	     17.73029040	      0.11975899	      6.95648822	    -53.65147260	    -13.65829366	    -27.94204045	     44.81540207	    118.39438088	    -21.68877425	     -9.25569124	    -20.03645625
      1.33750000	      1.54220495	      8.01449640	     94.11554189	      0.02229724	      0.93562712	      0.61380915	     30.92870167	     -3.34038477	     -9.53867071	    -40.34003836	    -17.42517815	     -3.92598787	      8.06407205	     35.19675242	     -6.15640796	     -1.33718487	    -43.88168968	    -26.74102785	      7.52554938	     16.23172185	    -37.40836460	     -1.27718582	      1.27544966	    -14.25492118	     -0.49962602	     -4.36605409	    -55.69440119	    -12.92344625	    -30.48145787	     40.12295881	    116.41092185	     17.68682436	      0.01008203	      6.95093034	    -52.72041319	    -13.54056148	    -27.95019054	     45.14892683	    118.44765445	    -21.93162098	     -9.37377565	    -20.13797303
      1.34000000	      1.64192388	      7.94874112	     94.07260807	      0.02219567	      0.92426731	      0.60997706	     31.99134511	     -3.25429226	     -8.97138244	    -42.38030212	    -15.47910451	     -2.66504008	     11.36209231	     36.09167944	     -6.17539834	     -1.02558858	    -45.41859754	    -25.27783266	      8.39841471	     19.53325793	    -37.49690496	     -1.18674667	      1.35400474	    -13.63475808	     -0.61339712	     -4.47245963	    -54.54124818	    -13.16658964	    -30.01811663	     40.20764866	    116.35330693	     17.31240880	     -0.67664327	      7.07724735	    -51.82171274	    -13.42377720	    -27.82219728	     45.28863976	    118.80065569	    -22.47536512	     -9.64536165	    -20.19488005
      1.34250000	      1.76752473	      8.31641344	     94.00444148	      0.02204786	      0.91382794	      0.60612991	     32.47273003	     -2.94817481	     -8.16243775	    -44.25514328	    -13.08853747	     -2.16434403	     12.70317372	     36.43892576	     -6.14086027	     -0.48024256	    -47.03233930	    -22.43208135	      8.81155417	     20.95852516	    -38.06343152	     -1.05572366	      1.58255437	    -13.12167561	     -0.73093976	     -4.53222173	    -53.45221732	    -13.24164615	    -29.85919810	     40.62845233	    116.20062912	     17.13695448	     -0.97633021	      7.13671494	    -50.94846075	    -13.31136727	    -27.82179639	     45.77122669	    118.90178453	    -22.91078916	     -9.83535933	    -20.27748595
      1.34500000	      1.88940230	      8.61057261	     93.96116795	      0.02174883	      0.90322618	      0.60245385	     33.04705002	     -2.68475910	     -7.58206380	    -46.25303042	    -10.15978629	     -2.03095010	     13.65043675	     36.90095979	     -6.11933736	     -0.14505778	    -48.72805878	    -19.31492388	      8.99476563	     21.91450784	    -38.60098534	     -0.90622643	      1.68618998	    -12.32710957	     -0.84202883	     -4.65391495	    -52.21918452	    -13.42433816	    -29.71981953	     40.95125035	    116.06411919	     16.89979664	     -1.33332454	      7.13197219	    -50.04572776	    -13.18396358	    -27.69278980	     46.19026251	    119.04940094	    -23.30143495	    -10.00132408	    -20.35109621
      1.34750000	      2.03740513	      8.78746257	     93.86127490	      0.02174933	      0.89258105	      0.59882957	     33.72148107	     -2.31506514	     -6.85361509	    -48.27783769	     -6.74719726	     -1.41262093	     14.58317048	     37.43467074	     -6.15907065	      0.27482959	    -50.40350079	    -15.75674939	      9.61767520	     22.80304891	    -39.01493521	     -0.78381325	      1.91263068	    -11.56673178	     -1.05090929	     -4.76949573	    -50.90073022	    -13.63253057	    -29.35309162	     41.10639053	    115.90284298	     16.52014592	     -1.80140461	      7.15488677	    -49.00355316	    -13.14009205	    -27.50280002	     46.50448039	    119.27876063	    -23.84728798	    -10.11298356	    -20.37359515
      1.35000000	      2.18282351	      8.98864065	     93.74994012	      0.02166924	      0.88203336	      0.59534210	     34.35817688	     -1.95045312	     -6.28717124	    -50.34207899	     -3.23863885	     -1.16422683	     14.97962202	     37.94655024	     -6.22527955	      0.55235341	    -52.17860316	    -11.92972415	      9.91415450	     23.13720875	    -39.47792667	     -0.66572663	      2.13133746	    -10.78236644	     -1.21970443	     -4.90046905	    -49.54850783	    -13.87170298	    -29.01575604	     41.31157258	    115.69218967	     16.08024702	     -2.26032064	      7.19779555	    -47.95429269	    -13.08630293	    -27.27431475	     46.88950685	    119.50105861	    -24.42491840	    -10.21273217	    -20.33056006
      1.35250000	      2.36353963	      9.11952214	     93.55465776	      0.02166415	      0.87149720	      0.59196640	     35.06891781	     -1.53330124	     -5.79082902	    -52.44479261	      0.44326868	     -0.82705459	     14.45566545	     38.53039540	     -6.39789248	      0.73121289	    -54.02591606	     -7.92569511	     10.34296898	     22.46016604	    -39.88452304	     -0.56553545	      2.38001595	     -9.93944438	     -1.39837480	     -5.06162958	    -48.11169324	    -14.20275502	    -28.54179418	     41.45138072	    115.37494012	     15.43301613	     -2.81095887	      7.32117098	    -46.86122334	    -13.03563217	    -26.91003854	     47.20248066	    119.77532807	    -25.19372100	    -10.27469901	    -20.11469413
      1.35500000	      2.47970562	      9.16558541	     93.48263355	      0.02169853	      0.86081492	      0.58897141	     35.94217693	     -1.18180826	     -5.41393531	    -54.69908183	      4.42144218	     -1.04700474	      8.94027773	     39.28444637	     -6.41787320	      0.95674421	    -56.04440662	     -3.47952417	     10.53440516	     16.38150745	    -40.25106845	     -0.50266228	      2.61705337	     -8.99674200	     -1.41312534	     -5.26521473	    -46.73008471	    -14.56459916	    -27.57774322	     41.57975208	    114.31539860	     14.08559710	     -3.45357616	      8.30295117	    -45.78104988	    -13.15733630	    -26.30687486	     47.69923506	    119.94689226	    -26.72641952	    -10.31223674	    -18.58996118
      1.35750000	      2.65904305	      9.45066867	     93.31328347	      0.02154412	      0.85096594	      0.58604783	     36.48248165	     -0.79252679	     -5.16016777	    -56.74206172	      7.23237380	     -1.33931744	      8.94260642	     39.72824534	     -6.56549512	      1.06194085	    -57.97434548	      0.03058006	     10.12915903	     16.42590304	    -40.88463898	     -0.36934619	      2.78660154	     -8.17427272	     -1.61599812	     -5.28971562	    -45.11673862	    -14.82666675	    -27.54063733	     41.93948379	    114.36816270	     13.81104726	     -3.52533782	      8.26481455	    -44.60104109	    -12.97733767	    -26.20538647	     48.15993119	    119.98248390	    -27.04923432	    -10.50432613	    -18.60329977
